<svg width="14" height="11" viewBox="0 0 14 11" fill="none" xmlns="http://www.w3.org/2000/svg">
<path fill-rule="evenodd" clip-rule="evenodd" d="M4.39835 5.67092C4.39835 7.09314 5.56258 8.25031 6.99998 8.25031C8.43087 8.25031 9.5951 7.09314 9.5951 5.67092C9.5951 4.24223 8.43087 3.08506 6.99998 3.08506C5.56258 3.08506 4.39835 4.24223 4.39835 5.67092ZM10.8244 1.70163C11.9626 2.58082 12.9317 3.86728 13.6276 5.47698C13.6797 5.59981 13.6797 5.74203 13.6276 5.85839C12.2358 9.07779 9.7577 11.0043 6.99998 11.0043H6.99348C4.24226 11.0043 1.76421 9.07779 0.372337 5.85839C0.320305 5.74203 0.320305 5.59981 0.372337 5.47698C1.76421 2.25759 4.24226 0.337585 6.99348 0.337585H6.99998C8.37884 0.337585 9.68616 0.815969 10.8244 1.70163ZM7.00076 7.27919C7.89182 7.27919 8.62027 6.55515 8.62027 5.6695C8.62027 4.77738 7.89182 4.05333 7.00076 4.05333C6.92271 4.05333 6.84466 4.0598 6.77312 4.07273C6.7471 4.78384 6.16174 5.35273 5.43978 5.35273H5.40726C5.38775 5.45616 5.37474 5.5596 5.37474 5.6695C5.37474 6.55515 6.1032 7.27919 7.00076 7.27919Z" fill="#9F9FA2"/>
</svg>
