<svg width="32" height="32" viewBox="0 0 32 32" fill="none" xmlns="http://www.w3.org/2000/svg">
<path fill-rule="evenodd" clip-rule="evenodd" d="M16 2.66663C23.3637 2.66663 29.3333 8.63617 29.3333 16C29.3333 23.3637 23.3637 29.3333 16 29.3333C8.63617 29.3333 2.66663 23.3637 2.66663 16C2.66663 8.63617 8.63617 2.66663 16 2.66663Z" stroke="white" stroke-width="1.5" stroke-linecap="round" stroke-linejoin="round"/>
<path fill-rule="evenodd" clip-rule="evenodd" d="M20.0668 16.6225C19.0948 17.6705 16.4495 19.4438 15.0961 20.0132C14.8801 20.1038 14.3295 20.2958 14.2108 20.2985C13.9588 20.3065 13.7161 20.1652 13.5988 19.9385C13.5535 19.8505 13.4201 19.2758 13.3775 19.0198C13.2508 18.2412 13.1855 17.0318 13.1868 15.8158C13.1855 14.5398 13.2561 13.2732 13.3975 12.5025C13.4348 12.2945 13.5441 11.8158 13.5761 11.7385C13.6361 11.5945 13.7455 11.4812 13.8775 11.4105C13.9788 11.3558 14.0948 11.3265 14.2108 11.3305C14.3295 11.3332 14.8121 11.5025 14.9775 11.5678C16.2815 12.0745 19.0401 13.9118 20.0535 14.9918C20.1441 15.0892 20.3935 15.3505 20.4348 15.4038C20.5295 15.5238 20.5761 15.6692 20.5761 15.8158C20.5761 15.9518 20.5348 16.0905 20.4495 16.2065C20.4055 16.2665 20.1508 16.5332 20.0668 16.6225Z" stroke="white" stroke-width="1.5" stroke-linecap="round" stroke-linejoin="round"/>
</svg>
