<svg width="14" height="13" viewBox="0 0 14 13" fill="none" xmlns="http://www.w3.org/2000/svg">
<path d="M10.9457 8.21765C10.773 8.38498 10.6937 8.62698 10.733 8.86431L11.3257 12.1443C11.3757 12.4223 11.2583 12.7036 11.0257 12.8643C10.7977 13.031 10.4943 13.051 10.2457 12.9176L7.29299 11.3776C7.19032 11.323 7.07632 11.2936 6.95965 11.2903H6.77899C6.71632 11.2996 6.65499 11.3196 6.59899 11.3503L3.64565 12.8976C3.49965 12.971 3.33432 12.997 3.17232 12.971C2.77765 12.8963 2.51432 12.5203 2.57899 12.1236L3.17232 8.84365C3.21165 8.60431 3.13232 8.36098 2.95965 8.19098L0.552319 5.85765C0.350986 5.66231 0.280986 5.36898 0.372986 5.10431C0.462319 4.84031 0.690319 4.64765 0.965653 4.60431L4.27899 4.12365C4.53099 4.09765 4.75232 3.94431 4.86565 3.71765L6.32565 0.724313C6.36032 0.657646 6.40499 0.596313 6.45899 0.544313L6.51899 0.497646C6.55032 0.46298 6.58632 0.434313 6.62632 0.41098L6.69899 0.384313L6.81232 0.337646H7.09299C7.34365 0.363646 7.56432 0.513647 7.67965 0.737647L9.15899 3.71765C9.26565 3.93565 9.47299 4.08698 9.71232 4.12365L13.0257 4.60431C13.3057 4.64431 13.5397 4.83765 13.6323 5.10431C13.7197 5.37165 13.6443 5.66498 13.439 5.85765L10.9457 8.21765Z" fill="#FE9920"/>
</svg>
